<svg xmlns="http://www.w3.org/2000/svg" viewBox="0 0 200 200">
  <g fill="none" stroke="#8B6F47" stroke-width="2">
    <ellipse cx="100" cy="110" rx="8" ry="20" fill="#E8A838"/>
    <circle cx="100" cy="85" r="6" fill="#3D2E1F"/>
    <path d="M92 100 Q60 70 45 55 Q40 80 55 100 Q70 115 92 110" fill="#E8A838" stroke="#3D2E1F"/>
    <path d="M108 100 Q140 70 155 55 Q160 80 145 100 Q130 115 108 110" fill="#E8A838" stroke="#3D2E1F"/>
    <path d="M92 115 Q65 135 55 155 Q50 155 52 148 Q58 130 92 112" fill="#E8A838" stroke="#3D2E1F"/>
    <path d="M108 115 Q135 135 145 155 Q150 155 148 148 Q142 130 108 112" fill="#E8A838" stroke="#3D2E1F"/>
    <line x1="65" y1="75" x2="50" y2="65" stroke="#3D2E1F" stroke-width="1.5"/>
    <line x1="135" y1="75" x2="150" y2="65" stroke="#3D2E1F" stroke-width="1.5"/>
    <line x1="75" y1="85" x2="60" y2="80" stroke="#3D2E1F" stroke-width="1.5"/>
    <line x1="125" y1="85" x2="140" y2="80" stroke="#3D2E1F" stroke-width="1.5"/>
    <line x1="97" y1="80" x2="93" y2="70"/>
    <line x1="103" y1="80" x2="107" y2="70"/>
  </g>
</svg>
