<?xml version="1.0" encoding="UTF-8" standalone="no"?>
<svg id="svg2" xmlns:rdf="http://www.w3.org/1999/02/22-rdf-syntax-ns#" xmlns="http://www.w3.org/2000/svg" height="1169pt" width="1703pt" version="1.1" xmlns:cc="http://creativecommons.org/ns#" xmlns:dc="http://purl.org/dc/elements/1.1/" viewBox="0 0 1703 1169">
<path id="path4" fill="#1f1a17" d="m1069.9 5.9469c-21.564 0.02-43.129 0.12344-64.684 0.17344-37.84 3.98-75.699 7.99-113.47 12.55-61.3 19.57-122.45 39.669-183.72 59.289-26.38 16.66-54 32.311-79.88 50.181-10.24 10.26-24.82 18.52-29.15 32.78-5.64 3.34-12.33 4.5397-17.82 8.2297-69.03 48.39-108.29 126.24-138.5 202.7-1.14 14.75 2.6697 29.73 0.8797 44.52-11.06-0.05-14.93 11.189-18.15 19.939-6.8 7.45-19.05 8.6506-24.27 17.891-6.28 15.08-12.579 30.45-14.139 46.87 0.12 7.04 0.1288 14.119-0.6812 21.139-0.66 8.36-4.7497 16.45-1.4797 24.77-15.77-3.48-31.87-4.9194-47.87-7.0094-3.85-0.01-7.6888-0.03-11.519-0.05-3.89 1.6-4.99 8.5791-10.6 7.1391-15.19-4.75-24.341 11.01-39.061 9.6203-31.26 2.94-52.109 33.72-83.809 33.95-5.31 8.87-15.411 11.43-25.211 11.9-4.05 9.11-9.1694 22.671-21.709 19.461-8.39-2.7-20.6 5.5191-17.23 14.839-26.14 2.37-47.31 24.11-65.13 40.13-14.08-2.61-26.69 10.561-27.55 23.931-20.66 16.67-29.62 44.89-25.62 70.6 27.3 8.12 43.779-22.641 63.189-36.761 11.04-5.71 9.7606-23.609 23.091-25.809 7.8-5.03 15.729-11.601 16.559-21.491 3.24-3.47 11.011-0.67938 13.011-6.1594 8.63-19.96 41.689-16.83 43.339-41.58 6.26-0.26 8.7606-5.2603 10.741-10.37 16.4-2.49 25.821-23.371 43.191-22.591 1.87-17.32 25.14-5.1491 31.43-18.789 5.16-4.15 14.66-0.74031 18.5-6.5703 5.86-14.74 27.4 1.2897 32.53-14.22 24.73 1.74 40.67 23.89 48 45.68 12.29 14.56 23.759 30.151 35.909 45.011 2.86 9.07 20.4 8.3697 21.05-1.9203 7.91 6.4 16.21 12.67 21 22 3.46 7.3 14.951 9.2703 15.611 17.72-10.9 11.8-24.52 22.699-29.45 38.609-1.28 3.92 5.6594-0.88031 5.4594 1.4297-5.06 5-11.54 8.44-16.6 13.5 2.67 2.47 8.0097 0.0409 11.13 2.5609-10.87 6.78-16.279 18.729-21.459 29.939 3.93-2.25 6.72-5.9703 10.35-8.6203-6.3 9.55-9.7803 20.651-12.22 31.741 1.62-0.05 2.33-1.7 3.25-2.75 6.31-8.62 6.73-4.42 1 1.05-5.6 6.56-7.3097 15.409-10.78 23.159-1.15 5.48 8.4806 0.26032 9.4906 2.6703-16.74 17.43-18.88 45.87-9.1703 67.55 5.52 1.1 11.099-4.479 13.839-9.039 3.87-14.14 18.291-22.83 19.591-38.07 2.71-0.25 1.0303 7.8994 4.8703 6.4094 2.21-16.05-0.33-32.1 0.4-48.12 3.4-3.99 5.4291 6.7113 6.7391 3.1313-0.4-5.03 0.2303-10.09 0.5703-15.07 0.4-5.24 0.7309-10.43 1.0109-15.65 2.79 0.01 2.7994 6.5297 5.3594 5.7297 0.14-11.3-0.8606-22.66 0.7094-33.88 1.76-21.3 16.411-38.101 29.611-53.711 6.34 0.91 12.39 4.4303 19.17 3.8203-0.69 10.7-11 17.53-14.07 27.5-3.8 8.91 2.3594 18.58-0.7906 27.53 4.26 0.91 6.4903-7.2291 4.6203-10.439-2.64-14.83 10.399-25.321 12.309-38.961-0.54-10.13 12.521-9.4588 17.191-16.819 4.29-5.03 8.26-10.66 4.5-17.5 10.34-4.71 22.85-23.45 32.17-11.67 11.85 2.52 26.64 1.7694 30.28-12.191 8.77 2.09 16.79-0.65969 21.48-8.4297 33.5 10.98 61.551-16.151 91.561-26.091 2.27 0.08 4.7888 4.1712 2.1688 5.0312-19.27-0.94-31.729 16.99-40.309 31.73-6.15 23.87-15.39 47.31-30.6 66.9-3.2 12.91 13.149 17.069 12.359 28.809-15.88 17.07-36.099 29.65-55.519 42.48-25.66 15.46-59.59 23.23-73.22 52.87-1.38 10.79-9.0397 24.76-0.6297 33.28-4.82 10.68-19.56 13.75-26.97 22.97-11.26 7.63-3.5509 23.25-11.161 32.95-4.01 6.61-12.449 9.431-15.859 16.511-2.44 4.07 6.4903 8.96 0.9203 11.5-12.16 6.94-28.85 16.31-25.85 32.85 3.52 5.13 22.139 3.4197 16.239 13.48-6.64 14.41-22.079 30.54-19.189 45.88-8.33 0.53-16.81 3.1903-18.03 12.82 8.43-0.56 18.179-5.8703 25.859-3.9703-0.62 14.36 12.401 18.35 24.141 15.67-4.21-4.65-10.37-7.7303-14.05-12.72 6.71-12.93 14.539-26.99 13.239-41.93 2.94-17.09 31.02 6.6503 33.78-13.13 13.02-14.96-10.789-36.191 8.0109-47.981 11.41-5.86-18.2-19.679-4.05-27.719 12.39 7.03 33.159-3.58 29.909-19.25-0.13-4.67 0.08-9.3906 0.75-13.991 2.55-5.64 2.96-12.191 3.95-17.791 4.62 2.35 9.9309 3.571 15.311 2.811 3.64-0.08 7.23-0.091 10.9 0.039 11.24 0.77 0.2788-16.41 9.8188-20.58 6.97-4.79-5.9194-10.41 0.4906-15.23 30.14-30.38 71.15-50.91 92.98-89.07 19.04 3.21 45.67-9.8703 42.47-32.47 3.87-24.43 21.82-43.879 30.13-66.589-5.79-11.22-2.3797-28.71-14.03-35.93 7.47-12 11.219-32.581 16.909-47.381 9.49-9.73 32.291-11.139 26.391-29.409 6.68 0.25 15.36 5.1606 19.02 9.7406-6.12 22.26 13.629 34.57 23.609 50.45 0.06 11.57-2.3091 26.489 7.7609 35.009 31.61 31.11 49.559 73.669 84.539 101.46 19.5 9.21 38.01 20.86 57.4 29.92 18.2-5.82 34.99 8.4603 35 26.77 0.97 38.78 1.2109 77.75-0.1391 116.53-2.39 12.13 5.2888 22.81 6.9188 33.57 13 11.37 36.33 8.4697 41.9 28.08 5.34 8.08-4.39 21.641 6.2 25.811 6.77-4.95 14.981-8.05 21.661-12.8 2.32-6.62 2.9697 3.2694 3.7297 6.0094-3.65 11.03-7.6703 23.46-19.07 28.85-3.51 11.38 12.401 7.75 17.191 12.3-5.4 15.57-15.771 36.18-1.4406 50.03 11.72 7.48 24.07-4.3697 35.7-6.9797-0.99 17.92-3.8991 36.29-3.2891 53.98 11.6 6.47-3.3412 15.56-10.081 18.75-4.59 3.08-8.5491-7.5394-11.439-4.0594 6.75 16.3 28.749 12.96 34.989-1.7203 4.91 8.4 16.291 9.7903 26.011 12.67-2.42-5.03-7.86-7.8403-10.65-12.62-3.5-10.89 4.8394-22.58-0.5906-33.1-5.7-13.04-11.14-26.171-16.85-39.191 3.68 1.04 7.0809 2.8312 10.711 4.0312 5.05-4.18 4.0194-11.701 7.0094-16.891 0.54-11.06-28.801-19.96-10.691-24.75-13.27-14.25-27.569-29.4-32.159-48.97 11.14-18.83-14.59-30.679-25.33-41.889-1.7-1.32-3.3497-2.6903-4.8297-4.2203-6.11-7.04-21.331-15.831-14.581-25.891 11-2.75 22.761 2.9697 33.561 5.8797-14.46-13.99-26.54-31.149-28.17-52.019-0.77-5.04-0.4506-10.121-0.041-15.141-7.54-34.44-31.019-64.589-29.359-101.16-5.88-13.14-17.659-23.961-27.759-33.641-0.06-20.79-24.191-24.759-39.381-31.209-9.21-7.75-14.579-20.041-26.089-25.011-26.02-12.22-49.15-29.14-71.95-46.43 1.3-4.84-4.1106-17.26 3.8594-16.65 10.38 0.93 15.261-11 23.091-14.87 34.62 12.22 66.349 31.461 100.69 44.491 22.31 4.18 46.38 0.11 67.47 9.35 28.46 13.72 60.03 18.559 88.35 32.559 19.33 16.05 44.401 25.221 69.441 26.561 6.34-0.08 12.68-0.0403 19.07 0.0297 19.02-1.16 37.67-6.7297 56.93-5.0297 3.71-0.06 7.3097-0.0812 11.08 0.0188 16.16-1.29 37.42 3.9309 47.25-12.939 46.28 13.35 44.95 75.72 87.35 94.25 15.55 14.25 37.981 18.809 57.141 12.839 11.47 8.48 21.749 19.391 32.859 28.611 4.86 2.2 6.5303-3.1906 6.0203-6.5906-2.38-7 5.4094-16.969 13.009-12.309 11.25 5.71 12.37 20.599 19.32 30.139 4.54-1.95 7.4097-5.6287 8.7297-10.219 12.73 8.78 16.911 44.919 40.361 36.559 7.38-2.94 7.97-13.61 12.9-18.1 21.13 9.6 43.599 19.1 60.459 35.33 6.38 14.58-14.949 17.241-23.659 21.441 13.56 7.57 37.309 0.64904 35.209-17.061-4.73-9.43 12.01-11.16 11.8-19.58-25.63-14.6-53.011-26.709-78.441-41.839-2.29-11.94-13.119-22.96-26.089-20.47-6.57-1.16-18.46 7.549-18.63-3.5609-7.08-15.22-29.46-1.4488-37.1-16.119-8.79-12.33-26.421-19.431-40.341-11.741-11.21-11.83-34.22 0.13969-41.12-15.72 13.64-8.53 29.791-13.99 45.011-19.98-21.19-6.39-48.391-2.4894-65.861-20.209-32.72-15.51-54.57-46.161-80.93-70.091-5.52-13.12-16.451-25.83-32.241-23.65-7.36 0.06-14.699 0.02-22.009-0.05-34.68 10.08-73.731 17.99-107.99 5.0203 53.12-6.1 106.47-9.96 159.74-14.25 8.66-1.01 17.411-0.92093 26.141-0.71093 4.23 0.04 8.46-0.04 12.75-0.3 7.06-0.7 14.179-1.0091 21.319-0.73907 34.7 0.66 69.291-11.78 97.641-31.33 7.88-14.81 20.16-28.41 21.02-45.92 15.98-70.32 8.49-143.91-7.8-213.49-9.4-24.43-18.381-49.02-27.561-73.53-25.02-48.96-62.58-89.35-101.1-127.92-23.8-14.15-47-29.299-71-43.039-33.7-14.32-67.1-28.861-100.8-43.241-27.72-7.58-55.94-13.4-83.83-20.33-21.55-0.28-43.113-0.34344-64.676-0.32344zm34.5 2.2781c22.254-0.070683 44.325 1.6084 65.894 8.3547 40.13 5.7 74.71 27.52 111.73 42.4 1.51 0.17 4.5009 2.8506 1.2609 1.8406-20.02-6.77-39.58-15.11-59.77-21.33-50.7-6.37-101.1-18.621-152.5-15.491-56.9-3.61-112.08 13.011-168.42 17.491-49.71 10.16-98.7 23.769-147.85 36.169-11.32 10.35-31.58 13.381-37.8 28.061 5.11 3.13 10.07 9.69 16.87 6.35 14.71-7.87 27.199-19.95 43.559-24.72 67.36-19.67 136.76-30.92 205.48-44.6 41.98-2.77 83.989-5.9294 126.02-7.7094 39.28 4.87 79.221 5.4197 117.73 15.38 36.26 4.52 69.069 23.96 101.21 38.73-33.22-10.16-65.281-26.771-100.09-29.791-64-13.14-129.38-9.18-194.3-9.1-46.6 6.65-93.319 12.641-139.94 19.091-40.62 15.57-84.59 23.84-121.6 47.5-26.96 15.98-59.701 18.151-86.691 34.291-12.07 7.09-27.959 5.7397-36.389-5.7203-4.22-1.76-10.711-8.45-16.561-8.4 27.53-29.13 66.92-44.05 100.95-64.87 55.73-17.67 112.49-32.45 169.54-45.5 38.53-5.35 76.979-11.48 115.56-16.52 28.547 1.17 57.464-1.8138 86.076-1.9047zm50.303 60.005c34.53 7.12 71.331 6.8509 104.33 18.861 11.75 3.23 23.529 6.6791 34.919 11.039 26.62 7.49 51.481 20.62 77.291 30.62 12.01 9.53 24.511 19.05 35.741 29.35-24.1-18.23-51.831-29.499-79.991-39.709-28.95-11.27-59.79-16.961-89.52-25.861-32.57-3.5-65.36-6.3894-98.05-8.2594-40.6 6.57-82.489 7.17-121.41 21.7-45.16 11.38-87.801 29.44-131.24 45.75-18.8 9.23-39.979 17.32-60.059 24.92-13.63 11.27-30.02 19.279-46.93 24.019-9.27 12.58 14.11 27.001 25.53 24.811 14.86-14.02 28.629-33.58 50.589-36.6 41.45-8.06 75.621-35.111 115.44-47.811 31.95-4.73 64.76-1.6194 96.53-8.0594 60.52-24.19 127.1-18.6 190.7-16.58 28.16 7.16 58.45 7.4597 84.42 21.63 34.67 13.72 67.809 30.769 100.61 48.359 11.04 14.49 25.221 27.72 32.311 44.67 14.27 24.27 26.07 50.78 34.08 77.93-12.38-18.03-19.93-40.109-37.15-54.809-18-27.25-58.85-27.869-74.55-56.609-10.38-4.37-20.711 0.67969-30.891 2.2797-12.59-4.47-22.369-14.14-34.469-19.52-12.18-12.51-39.641 1.0006-58.481 0.59062-23.35-19.81-57.38-5.7112-85.5-9.9812-25.85-4.6-52.629 20.991-76.359 3.7609-22.95-4.6-41.821 14.179-64.091 15.739-22.25 1.27-44.379 5.2009-65.719 11.311-6.91 7.25-17.621 12.72-28.161 11.58-18.24 8.41-39.249 8.25-56.709 18.55-13.92 4.85-25.07 16.93-40.82 16.18-13.14-0.02-19.05 16.64-32.72 16.32-12.84-0.01-24.38 5.0203-36.13 9.4203-14.16 1.94-3.2894 11.45 1.7406 18.22-4.14 4.8-9.3906 11.64-16.741 10.93-10.28 8.56 10.59 12.09 16.6 10.13 32.21-5.51 63.421-17 95.641-22.42 21.78 6.93 45.609 8.3997 66.369-2.7703 10.38-3.5 5.2912-19.259 18.081-20.069 39.27-8.22 80.259-8.2506 118.24-22.741 48.17-7.49 96.381-16.021 145.06-19.991 9.77-2.49 13.21 9.53 21.8 11.1 17.7 4.37 34.659-12.849 51.989-3.3391 26.17 22.53 63.14 11.889 94.53 17.609 32.88 9.08 61.321 31.051 88.261 50.241 12.5 11.92 22.049 33.67 15.059 51.05-19.81-21.2-51.49-24.031-78.1-32.791-19.73-3.26-49.279 2.2209-57.209-21.789-12.27 3.43-24.95 10.37-38.32 11.63-13.45-3.39-29.521-4.7303-38.191-16.97-8.94-2.03-16.039 6.62-23.769 9.85-8.23 1.38-22.09-2.5994-17.67-13.759-9.42 0.09-17.51 5.84-26.32 8.4-37.56 17.18-79.64 19.969-120.38 16.659-37.99-3.23-74.251 9.84-110.96 16.9-59.78 16.09-121.96 23.77-183.66 26.23-24.04 4.68-48.189-2.9397-72.159-5.2797 1.81 4.16 8.34 4.1903 11.05 8.0203 7.64 3.33 14.509 8.2291 22.089 11.739 24.68 14.97 51.861 25.2 80.341 29.67 28.41 1.22 57.179 1.9703 85.239-3.4797 21.2-3.73 44.041-7.0703 64.391 2.0297 13.4 6.63 28.93-2.32 35.97-13.85 42.46-3.46 86.01 2.5809 128.52-4.2891 33.28-5.12 67.37-4.5512 100.13-12.931 22.85-3.71 44.97 4.68 67.17 8.2 17.81-2.39 38.129-1.6297 53.869 5.0703 2.72 0.07 5.3703 0.81062 8.0703 1.1906 19.26-0.43 38.55-0.16 57.83-0.25 20.89 11.29 46.97 8.3491 69.17 15.239 1.25 13.9 4.3406 29.74 3.2906 44.52-60.22-7.57-120.8-6.4694-181.16-10.809-74.09-8.88-148.94-11.13-223.46-7.4797-27.69 5.41-54.861 15.7-83.591 13.58-28.82-1.27-61.839 6.4991-87.759-4.0609-9.71-4.79-18.609 3.5112-28.409 3.0312-15.07-3.02-28.77 5.1-43.1 8.1-16.38 2.23-33.6-7.5412-50.67-10.031-9.64-1.58-18.8-4.95-27.98-8.1 20.61 31.91 56.91 45.57 87.98 64.52 4.53 2.36 10.239 5.0206 13.809 8.6406 27.67 14.25 59.891 9.2097 89.811 9.5797 29.47-0.73 58.009-9.1206 87.359-10.741 44.88-6.36 94.02-9.7194 140.48-6.5594 32.11 3.08 64.41 3.0897 96.53 0.62969 62.22-9.3 126.68-1.3097 188.17-8.4797 9.68 9.37 26.531 20.34 17.111 35.87-8.49 9.96-5.89 30.93-23.85 29.45-36.64 0.63-73.341-0.55031-109.94 0.52969-58.44 12.16-118.36 11.27-177.25 19.93-16.94 3.11-36.66-2.7394-51.18 9.1406-34.05 2.18-68.441-2.97-102.41 2.45-27.29-0.82-54.16-7.57-81.63-6.95-25.63-5.69-53.86-7.52-76.02-22.07-1.53-0.26-3.0806-0.66938-4.2406-1.7094-20.92-8.42-41.299-18.15-62.069-26.92-2.64-0.94-5.0206-2.4009-7.4906-3.6109 0.84 18.95 14.97 40.211 35.4 43.641 29.97 8.33 56.459 25.181 85.609 35.441 30.78 8 62.69 11.579 94.45 12.169 52.44-6.66 105.59-6.4391 157.94-14.239 100.53-10.44 202.62-11.011 301.2-35.541-17.62 16.57-43.66 24.59-66.98 32.87-113.53 9.34-228.52 9.6397-340.54 32.48-43.57 4.61-88.069 7.3109-130.04-7.8391-45.89-17.75-92.591-34.751-133.58-62.411-17.12-13.67-28.06-35.469-48.08-45.059-12.73-7.41-1.1494 3.6397 0.3406 9.7797-12.12-7.4-23.881 7.28-35.061 10.95-5.87 2.85-1.5097 7.4306 3.1703 7.7906-13.45 12.26-24.92 28.609-42.67 34.739-11.31 3.09-13.869 16.29-23.639 21.4-6.24 3.36-17.1 9.5806-11.85 17.941-15.84 9.79-33.921 16.89-51.311 24.03-12.48 6.55-24.369-5.0706-30.469-14.941-13.18-13.35-5.1212-33.489-13.181-48.909-7.81-17.12-12.189-36.53-25.469-50.5-17.53-15.7-33.981-33.05-44.791-54.13-5.05-9.39-5.4894 6.24-11.359 4.45-5.76-10.92-13.811-21.651-19.311-32.011-17.64 4.67-22.139-15.46-24.289-28.48-6.19-11.93-2.8809-26.639-0.8609-38.239 21.43-78.04 66.12-153.17 132.23-201.05 21.04-18.3 56.331-8.4403 75.891 8.9797 6.95 7.7 14.25 15.09 21.17 22.82 16.43 37.61 24.75 78.039 34.12 117.87 13.44 32.38 25.39 65.75 26.85 101.17 0.45 31.74 39.669 46.141 40.569 76.461 11.34-21.77-13.79-34.83-26.05-48.15-7.95-23.01-10.119-48.67-7.1391-72.57 7.3-7.47-1.31-13.74-4.65-20.65-24.84-31.79-31.23-74.4-31.02-113.77-2.04-19.12 4.8703-40.04 18.12-53.57 9.85-8.81 19.179-20.02 32.389-24.15 55.78-21.4 108.92-48.93 163.89-72.23 36.33-8.18 73.03-14.82 109.7-21.28 39.87-2.24 79.779-4.9206 119.66-6.6906zm-326.32 38.7c0.445 0.0113 0.5094 0.28249-0.4156 1.1125-37.66 25.37-82.499 43.439-108.01 82.889-8.66 8.38-13.529 19.62-22.009 28.12-9.89-10.18-13.971-26.02-15.381-39.3 33.63-3.36 61.691-26.78 91.631-41.63 5.5-1.3 0.4897-5.9797-0.1203-9.0297 15.92-10.54 34.869-14.76 52.439-21.72 0.595-0.205 1.4206-0.45344 1.8656-0.44218zm-253.32 76.302c-6.97 1.58-11.059 7.31-13.239 13.7 11.67-10.08 10.679 11.58 4.4594 17.37 7.75 0.82 22.86-4.7306 21.18-16.991 3.99-8.63-5.27-13.89-12.4-14.08zm-42.414 51.831c-0.5459 0.0237-1.2059 0.13906-1.9953 0.35937-17.06 4.43-20.939 20.899-29.759 33.459 10.83-6.34 20.479-14.87 30.139-22.83 1.5406-2.9725 6.8927-11.218 1.6156-10.989zm28.734 7.2984c-15.54 15.72-31.47 32.371-52.68 40.281-14 9.29-7.1706 31.029-24.741 37.369-1.46-1.84 6.66-11.67 1.4-14-9.02 14.44-22.11 29.891-17.83 48.191 0.6 3.84 5.6297 3.5397 8.2797 1.8297 9.04-6.97 19.561-13.85 22.581-25.63 5.05-16.16 23.23-21.6 32.6-34.42 12.37-15.01 30.41-25.279 38.5-43.589 1.81-4.92-3.9009-9.8912-8.1109-10.031zm12.58 34.861c-4.81 14.31-8.8594 37.34-27.609 40.88-17.79 6.47-9.6294 30.41-24.759 39.55-9.88 5.54-22.631 15.18-18.531 28.17 4.12 16.55 2.5403 33.77 4.2703 50.6 2.51 9.15 13.801 8.8503 20.091 13.57 1.03 4.02 0.1097 8.6094-0.3703 12.809-6.85 7.22-0.47 8.77 7.05 10.9 8.82 3.07 19.69 3.6403 27.78-1.4297 2.1-6.8-3.0303-11.78-7.5703-15.75-0.79-12.25 25.621-14.17 17.581-27.33-6.13-15.06-20.451 3.3697-31.311 0.32969-4.29-5.43 0.5006-13.05 0.2906-17.67-12.41-0.58-14.22-12.181-10.25-22.141 14.01-18.77 30.299-35.779 46.409-52.719 5.33-10.91 5.5597-23.66 13.63-33.47-2.02-9.61-10.04-19.5-16.7-26.3zm74.54 16.13c-7.7 2.69-14.29 8.4403-18.25 15.52 7.27 7.58 15.011 15.42 25.341 18.43 11.74 11.55-2.5612 28.211 1.1188 42.141 2.35 5.44-7.64 4.7897-5.65 10.13 13.15 6.33 26.441 14.109 40.791 17.239-5.09-14.14-24.55-24.05-19.33-42.11 4.36-21.87 0.78-54.62-24.02-61.35zm-46.059 70.03c-13.47 2.49-19.7 20.22-11.9 30.85 17.93 3.04 35.41-25.83 11.9-30.85zm30.647 36.93c-8.375-0.15016-16.016 2.6378-18.747 12.131-1.17 8.66 10.889 8.3994 14.589 13.659-2.94 7.25-13.95 10.1-15.23 18.77-3 13.64 10.01 22.11 15.65 32.98 18.31 4.71 28.99-12.52 34.45-27.22 7.22 10.35 10.811 25.631 25.391 28.161 8.41-0.54 16.279-4.3409 23.859-7.8109 9.27-4.64 6.0203-15.579 0.8703-21.989-4.5-5.55-3.1703-15.821-11.17-17.881-11.01-3.88-18.57 8.8103-28.58 10.87-7.08-12.64-16.5-23.14-20.07-37-5.6625-2.1188-13.623-4.5378-21.012-4.6703zm-194.9 25.714c8.0819 0.25926 17.277 12.719 19.739 19.706-16.87 12.28-43.919 27.93-34.759 53.05 4.27 10.35 13.699-9.1891 20.659-1.4891-1.05 7.95-0.1691 16.019 2.3109 23.639 24.24-3.36 13.68-42.68 39.25-40.65 14.28 18.65 32.35 36.14 48.45 51.9-34.99-6.99-54.35 40.84-35.75 67.03 4.86 4.87 1.9488 16.881 4.8188 23.641 8.6 12.01 22.821 17.791 29.881 31.041-8.6 3.69-11.831 15.9-21.291 17.08-10.05-13.42-20.739-40.62-42.009-29.93 0.22 3.06-9.83 4.41-7.1 9.8 6.53 1.67 13.979-2.6809 19.769-1.2109 7.23 1.17 16.361 3.6109 13.841 13.361-1.63 8.96 19.439 22.299 3.5094 23.389-6.38 2.34-9.6897-4.44-14.73-6.65 0.12 1.79 0.4897 3.5306 1.0297 5.2406 3.98 3.44 9.2103 6.7891 11.27 11.839-9.01-1.04-18.289 0.76124-26.909-3.0188-17.4 6.57-23.661-11.841-36.341-18.631-15.67-10.47-17.97-37.68-37.98-41.45 5.72 7.72-23.46 7.2409-11.03 5.8109 3.48-0.93 4.7694-5.4397 8.3094-6.4797-2.32-13.42 2.6206-25.051 4.9406-38.011-0.92-10.11-4.1897-19.78-5.8297-29.75 4.57-0.79 8.6888-6.66 1.8188-7.5-1.44-6.94 1.8012-15.669 3.6312-23.209-0.89-6.2-16.471 5.92-10.131-3.95 10.05-12.44-4.31-34.171 10.4-41.541 5.72-5.94 15.16-14.03 9.1203-23.1 6.71-14.35 25.861-20.24 25.791-37.97 1.65-1.4569 3.4553-2.0458 5.3203-1.9859zm173.03 95.206c-6.32 13.54 0.35 27.5 3 39.57 7.5 2.46 15.33 5.1994 23.3 5.0594 11.13-4.73 18.04-15.89 26.62-24.08 5.72-5.96-1.0303-6.4891-6.8203-5.8391-13.33 8.52-4.8997-8.7203-14.63-10.17-10.5-1.5-21.05-2.5106-31.47-4.5406zm-78.94 18.02c0.3293-0.0109 0.666-0.0113 1.0078 0 20.93 4.12 5.89 37.109-12.15 31.659-9.23 10.32-8.0303-6.8794 0.03-9.9094 7.12-3.33-2.9397-6.1003-6.0297-7.1703-1.12-8.41 23.289-0.35 14.619-9.55-5.6906-2.2969-2.4152-4.8658 2.5234-5.0297zm-203.54 4.0594c18.34 2.41 39.039 2.8909 56.219 7.8109 8.18 15.78-11.549 15.41-19.819 8.5297-6.42-3.5-5.7112 6.6097-10.731 7.0297-11.44 1.97-25.19-12.229-34.3-0.80938-8.12 0.88-18.37-3.64-23.88 4.95-8.56-1.82-15.669 0.79-23.459 3.8-5.37-3.7 0.3397-18.481 6.9297-14.641-4.72 7.95 3.3997 8.52 10.18 7.9-3.75-12.51 13.871-18.87 23.641-15.47 8.58 4.39 11.11-4.21 15.22-9.1zm218.91 6.0609c8.75 13.67 21.56 26.21 26.43 41.62 5.03 13.17 0.1703 33.049 14.67 42.169 8.37 4.26-2.89 9.9503-6.35 12.47-14.91-12.28-17.03 23.84-30.17 11.37 8.14-1.25 5.4397-13.201 7.5297-20.041-2.84-23.59 1.4303-47.989-5.7797-70.909-3.86-4.21-8.1697-12.63-6.3297-16.68zm-182.52 15.302c5.6929-0.11624 14.391 7.2613 20.795 2.2875 8.78 12.5 9.6903 34.42 0.3203 48.65-1.48 3.64 3.6594 12.491 0.1094 13.161-17.48-16.6-22.901-42.62-40.091-58.9-2.51-2.05 9.9612-1.0197 13.881-0.42969 0.99-3.5297 2.7567-4.7233 4.9844-4.7688zm-109.14 2.4547c2.7332 0.17498 0.8391 5.9813 2.0391 7.7438-0.53 8.26 15.48-4.1597 10.8 4.7703-9.09 11.07-24.67-3.8803-13.45-12.47 0.2256-0.0412 0.4287-0.0554 0.6109-0.0437zm274.79 5.5078c7.2485 0.10199 7.6003 8.4297 0.8015 12.936-6.84 1.14-6.3397-8.0706-4.3297-12.441 1.3163-0.35625 2.4926-0.50988 3.5282-0.49531zm-289.32 5.3938c4.1277-0.25171 7.06 4.1137 10.612 6.0125-5.61 10.42-20.419 8.6094-28.839 11.409-0.23 10.1-11.69 8.4003-16.02 15.02-5.57 6.12-10.22-12.45-9.8703-3.0797 3.67 8.84-9.8803 6.5391-9.9203 13.939-0.53 8.72-15.61-0.0303-13.78 10.18-6.15 15.8-21.45-13.889-6.6203-15.489 2.51 2.02 8.4809 13.27 6.9609 1.1297-5.0507-9.7696 9.792-14.092 12.925-5.3234-1.4511-11.727 12.236-20.85 20.475-9.1266 4.12 5.46 1.1494-2.1997-0.4406-4.5797 3.18-7.21 11.201-10.24 16.291-4.25-1.83-10.1 9.8997-11.67 16.38-15.43 0.6438-0.245 1.2572-0.37654 1.8469-0.41249zm-54.552 33.798c0.1024 0.82709 0.2741 1.6675 0.5344 2.5141-0.078-0.93924-0.2681-1.7688-0.5344-2.5141zm163.38-22.536c5.52 5.63 9.8194 15.629 17.709 20.619 8.91 5.05 5.9409 16.87 9.6609 24.95-5.62 0.69-7.34-6.1097-6.7-10.48-4.68-6.39-13.93-10.459-17.82-17.239 11.22 1.89-11.51-13.27-2.85-17.85zm486.96 11.958c6.7297 0.24174-3.6062 14.981 1.5969 19.772 18.67 15.8 39.89 29.039 61.07 41.009 8.43 3.79 17.62 8.3297 22.88 16.18 13.76 14.83 31.431 25.16 48.861 32.95 2.51 0.54 4.9188 2.9903 4.2688 5.7203-8.87-0.97-19.92-8.8994-26.73 0.34062-7.47 12.42-29.97 9.6891-22.4 29.439 0.25 3.52 0.99 7.0706 2.4 10.341-32.38-16.6-66.7-37.59-80.38-73.17-6.9-15.6-23.25-25.91-32.35-39.92 17.1 3.83 24.88 23.211 40.67 29.541-4.68-4.2-8.9309-8.8197-12.961-13.63-7.01-8.14-18.259-13.86-21.189-25-0.92-3.72 3.5497-4.8397 5.9797-2.8797 13.06 8.84 26.12 17.86 40.23 25 2.08 1.38 8.8809 1.3688 1.9609-1.9312-15.66-14.31-45.96-27.32-35.51-53.6 0.61-0.12 1.1342-0.16768 1.5828-0.15156zm487.17 19.911c5.5892-0.0547 10.599 1.9144 13.631 8 5.3 2.41 10.951 11.98 9.4609 16.22-9.35-10.13-23.43-9.49-32.4-17.35-5.7 9.31-14.48 22.36-27.7 22-5.91 1.15-2.5109 9.14-3.4609 13.15-1.67 8.41 7.88 13.03 8 20.53-7.43 3.38-15.869-0.41-23.589 0.45-24.92 4.22-52.201 21.701-76.541 7.8312-15.68-11.45-37.82-8.6709-52.08-22.711-5.45-5.37-13.72-8.38-18.53-13.3 37.21 9.81 74.749 1.5606 111.84-4.1094-22.05-1.36-47.12-0.51-69.98-5.95 28.63-7.26 61.2-3.5003 91.28-5.7203 16.8-1.7 34.08-3.8297 48.62-13.23 6.12-2.3231 14.262-5.7406 21.448-5.8109zm-634.01 2.35c6.35 0.43 12.63 1.2994 19.05 0.70938 21.52 21.67 4.81 56.151-8.1 78.091-12.77 13.97-4.5109 47.51-28.911 49.32-4.16 2.77-18.36-1.9206-6.6297-3.8406 24.56-5.41 30.13-40.98 9.25-54.07-21.34-6.79-34.46 13.621-48.9 24.391 17.73-24.98 22.539-55.891 38.109-81.841 8.63-4.31 16.351-11.139 26.131-12.759zm-160.01 0.95c2.5 8.27 15.421 13.749 21.011 2.5594 2.73 6.65 7.9597 28.62-8.2703 26-10.8-3.16-29.421-22.799-12.741-28.559zm-376.43 2.59c9.3666 0.50612 9.6519 15.109 7.5594 23.091-4.89 4.43-12.349 3.9506-17.669 7.8906-6.59-8.52-13.93-27.24 3.9297-29.68 2.4-1.0047 4.4451-1.3953 6.1797-1.3016zm244.29 10.081c15.8 3.39 9.2091 15.9-2.3109 19.87-6.65-6.31 9.07-6.4906 8.05-12.791-5.3-0.17-9.2997 4.5606-14.73 3.7906 0.47-4.54 6.9406-6.7003 8.9906-10.87zm-273.83 4.3391c18.11 8.1 4.0312 31.681-7.1688 40.881-11.03 5.96-16.18-11.801-15.95-20.011 5.08-9.32 13.829-16.07 23.119-20.87zm-37.98 20.92c9.48 2.94 13.801 15.481 21.291 22.241-0.25 11.46-10.81 23.15-22.38 24.22-4.84-10.21-16.501-19.211-13.331-31.711 3.27-6.03 8.6203-11.1 14.42-14.75zm1212.6 9.0297c5.44 7.63 16.47 7.5903 26.38 9.1203-8.01 13.28-24.61 1.7297-26.38-9.1203zm52 5.66c11.03 2.35 23.45-0.1 29.75 11.25 5.78 6.01-1.9703-7.5603 5.0797-7.2703 12.42 5.71 10.47 24.961 24.45 29.191 5.67-0.28 10.2 4.86 12.38 9.65 18.48 20.07 35.06 42.869 43.35 69.109-9.84-10.59-15.47-25.19-25.03-36.03 1.91 9.33 7.1003 17.679 8.7703 27.039-15.98-1.63-15.73-24.379-23.8-35.109-0.25 0.29-0.7697 0.86-1.0297 1.15 2.18 6.18 7.1703 14.57 3.0703 20.2-8.32 9.75-16.521-6.3694-21.181-12.059-13.54-14.25-25.699-31.311-28.509-51.281-6.37-10.87-20.48-15.999-27.3-25.839zm-1295.2 6.34c12.814 0.41372 16.63 16.619 24.07 24.941 6.48 13.5-8.6197 21.429-18.48 26.259-23.06-2.35-31.899-44.099-6.8594-51.189 0.4325-0.0203 0.8554-0.0243 1.2688-0.0109zm452.89 9.15c0.1653 2.0934 0.4092 4.237 0.6719 6.4031-0.068-2.1025-0.2865-4.238-0.6719-6.4031zm0.6719 6.4031c0.645 19.883-12.287 36.862-27.372 48.917 16.08 15.71-3.4 32.05-14.45 42.62-4.25-8.53 5.2406-23.391 4.4906-29.591-27.39 11.55-10.91 48.301-20.07 69.031 17.45-15.26 27.779-38.151 44.609-54.591-2.62-12.72-6.6588-26.171 4.0812-36.641 13.076-9.9568 10.451-25.399 8.711-39.747zm-44.372-2.4047c2.8727 0.002-2.4066 5.3837-3.7391 6.8625-13.29 11.38-14.461 35.71-35.581 37.15-9.01 4.57 12.03 4.56 5.95 10.2-5.53 1.58-14.31 3.6294-15.5 10.059 7.77-0.85 20.861 8.7506 12.741 15.191-9.46-4.71-19.329 1.8297-22.709 11.13 8.7-4.16 19.29 0.73062 17.35 11.291-0.74 11.08-16.791 0.53907-20.981 9.1891-2.82 4.44-7.5688 8.511-7.6688 14.111 11.84-5.6 30.23 3.28 26.93 17.85-6.27 1.57-10.32-11.52-16.83-5.6703-5.12 6.4-10.791 13.09-15.061 20.05 6.49-2.43 14.371-5.3503 20.191 0.37968 1 14.87-8.0309 27.73-19.111 36.58-7.1-20.02-6.74-43.52 9.6-59.28 6.46-5.79-4.6-8.9503-9.6-6.8703 3.25-14.34 13.34-25.459 21.7-37.059-5.06 0.78-7.8491 6.11-12.739 7.15 2.1-12.64 11.979-21.31 17.959-31.95-3.36 1.22-6.58 2.8-9.9 4.1 2.36-7.79 13.921-13.411 15.161-19.391-18.82 1.34 1.4991-7.8094 6.6391-12.859 5.13-5.63-11.3 0.53031-6.8703-5.8297 8.9-13.82 20.371-33.081 38.631-31.411 1.68-0.68625 2.7762-0.97245 3.4391-0.97187zm182.99 13.04c0.8016-0.013 1.7403 0.10313 2.8344 0.37031 6.24 0.3 27.73 8.6197 16.07 15.98-2.59 4.27-6.62 8.33-11 11.1 0 0.37-0.02 1.1206-0.02 1.4906 5.73 0.49 8.5597-5.6106 13.33-7.2406 2.57 4.79-13.339 18.259-14.259 13.909-6.83 17.76-16.251 37.86-34.011 47.75-26.22 18.05-47.32 42.461-76.08 56.881-7.3 5.02-15.08 13.109-24.35 6.4094-7.51-1.07 0.1 9.0306 2.45 11.891-4.04 6.05-10.7-0.22032-12.62-4.8703-6.14-15.86 9.7003-26.971 17.17-38.741 37.53-26.43 80.971-45.179 112.94-78.989 3.32-5.37 13.309-1.71 13.909-8.3-2.77-3.3-5.4297-6.6806-8.0797-10.041-0.9878-5.2472-6.033-17.475 1.7156-17.6zm-11.525 6.3875c2.4809 0.0585 4.2163 1.9612 3.8094 6.9531 0.56 4.78-2.36 12.299 3.6 14.609-3.43 5.21-6.3706-4.9806-8.7906-7.6906-2-3.6-8.2488-3.81-8.9188-7.6 2.6888-3.375 7.1104-6.3471 10.3-6.2719zm-609.25 0.12188c8.4 9.48 20.26 17.61 29.5 26.27-6.68 12.73-25.26 28.361-40.55 21.511-6.38-16.05 1.23-34.341 11.05-47.781zm929.3 1.2812c3.65 0.21 8.9894-0.41124 11.659 2.3688-5.95 5.58-15.56 1.9206-22.33 6.3906 2.8-3.63 6.0103-7.5694 10.67-8.7594zm477.43 11.73c11.02 3.01 23.01 2.1197 34.28 4.4297-6.23 4.34-10.87 10.51-17.32 14.55-5.21-6.56-12.889-11.7-16.959-18.98zm-501.14 6.8859c3.6803 0.11137 5.7544 2.4762 6.0469 6.9938-11.88-4.41-2.7597 11.999-4.7297 15.859-4.03-5.17-3.1503-15.549-4.1203-22.569 1.0181-0.21562 1.9538-0.31007 2.8031-0.28437zm39.327 3.1531c17.78 5.25 34.581 19.801 37.861 38.881-2.83 31.54 26.33 54.199 25.08 85.839-0.69 17.17 6.9297 32.41 16.08 46.28 3.5 1.93 6.2603 5.7113 8.8703 8.9313-11.2-5.96-37.759-10.14-32.359 11.23 0.09 5.44 6.4991 18.74-3.5609 15.82-2.75 3.95-2.6003 9.02-3.0203 13.6-7.74-2.36-14.4-7.471-22.38-9.111-11.45-11.12-7.6291-27.7-9.5891-41.97-0.33-34.9-0.091-69.809-0.081-104.71 3.23-19.02-17.58-30.57-25.58-43.78 14.24-2.81-7.48-11.96-6.9-17.9 14.64 3.85 21.681 23.469 33.391 31.489-3.59-12.32-14.261-22.29-17.811-34.6zm-31.18 11.231c7.39 9.1 18.91 14.43 26.23 23.4-10.53-5.16-32.14-6.56-26.23-23.4zm538.83 19.819c8.94 7.99 29.411-1.8497 30.111 14.82-0.84 8.67-6.4603-1.2191-8.0203-4.8891-5.14 1.11-12.911 10.229-15.991 1.9891-4.28-4.09-19.72-7.5203-6.1-11.92zm37.994 8.9016c13.812-0.0988 3.3497 18.166-7.7328 12.819 1.71-4.34 2.7203-9.73 6.3203-12.75 0.4969-0.0428 0.967-0.0656 1.4125-0.0688zm18.577 6.1094c7.95 2.37 20.55 5.4394 22.45 14.759-7.03 10.94-28.49-6.4594-22.45-14.759zm24.891 26.03c5.51 2.59 10.309 9.6094 17.459 11.509 2.19 17.61-21.719-3.2294-17.459-11.509zm39.555 5.1375c10.56 0.19104 18.331 9.9806 28.245 13.533 4.75 4.12 16.13 4.3494 14.77 12.759-15.57-4.41-29.281-15.14-44.791-20.5 5.55 7.04-11.78 23-13.32 10.07-6.09-8 5.7609-8.3097 10.411-9.8797-2.76-0.9-6.79-4.8-1.5-5 2.1781-0.72344 4.2288-1.0182 6.1844-0.9828zm-1049.7 37.04c0.29 8.63-12.549 15.361-21.159 18.461 1.08-10.28 14.499-12.301 21.159-18.461zm-50.95 45c8.76 1.2 9.1806 21.311-1.7594 21.061-8.64-0.67-9.9494 12.17-17.159 12.25-0.13-7.07 8.8897-10.59 11.63-16.65-14.63-3.6-0.3409-15.131 7.2891-16.661zm-20.869 35.9c5.96 2.05 4.65 13.6 9.7 18.52-5.14 0.75-18.031-3.6194-20.081-10.709 2.12-3.4 6.4212-6.181 10.381-7.811zm554.55 6.8297c11.97 9 25.489 17.311 33.669 30.341 1.75 3.39-5.9 9.14 0.4 9.5 7.09 1.22-1.7988 7.03-5.4688 2.7-9.91-14.12-33.77-22.501-28.6-42.541zm-565.58 8.1813c3.01-0.14 3.86 13.6 8.7 7.8297 4.62-3.29 18.81 1.1403 10 6.9703-2.16 13.03-14.269 1.7987-21.809 0.46872-9.37-4.22-6.9406 9.7-2.3906 12.55 7.07 4.51-0.6391 12.84-1.9391 18.75-2.59 11.02-20.44 13.371-16.55 26.511 1.82 7.94-7.11 28.709-15.35 16.459 8.57-13.5 10.64-34.71 25-41.73-7.76-2.45-6.9409-9.6597-0.061-13.68-5.58-1.73-12.659 0.73936-18.819 0.55936 0.47-7.49 7.4094-11.879 13.909-13.959 9.65-3.36 12.669-14.04 19.309-20.73zm604.62 46.769c10.48 5.44 18.221 25.341 1.8906 27.841 13.31 2.48 16.55 16.13 22.98 26.23-1.8 15.92-23.391 9.86-33.991 15.75 8.55-9.83 17.49-20.94 18.12-34.68-0.38-5.21-7.5803 1.47-8.6203-2.75-0.26-10.75-3.6497-21.891-0.3797-32.391zm-610.52 2.2313c0.88 0.1-1.53 7.0988-3.6 7.2688 0.05-2.75 0.9-6.0088 3.6-7.2688zm631.7 75.1c9.92 0.23 9.0103 10.899 10.12 18.269-0.93 10.54 9.3706 24.031 0.7406 32.511-9.77-14.34 1.57-34.29-9.15-48.3-8.89 9.77-22.23 13.38-29.88 0.9703 9.32-1.61 18.889-1.41 28.169-3.45z"/>
</svg>
