<svg xmlns="http://www.w3.org/2000/svg" viewBox="0 0 200 200">
  <g fill="none" stroke="#8B6F47" stroke-width="2">
    <path d="M40 100 Q60 80 80 85 Q100 90 120 85 Q140 80 160 100" fill="#6b5b45" stroke-width="2.5"/>
    <circle cx="40" cy="100" r="8" fill="#5a4a35"/>
    <circle cx="36" cy="97" r="2" fill="#3D2E1F"/>
    <line x1="35" y1="93" x2="30" y2="85"/>
    <line x1="40" y1="93" x2="42" y2="84"/>
    <g stroke-width="1.2" stroke="#8B6F47">
      <line x1="55" y1="87" x2="50" y2="100"/><line x1="55" y1="87" x2="60" y2="100"/>
      <line x1="70" y1="84" x2="65" y2="97"/><line x1="70" y1="84" x2="75" y2="97"/>
      <line x1="85" y1="86" x2="80" y2="99"/><line x1="85" y1="86" x2="90" y2="99"/>
      <line x1="100" y1="88" x2="95" y2="101"/><line x1="100" y1="88" x2="105" y2="101"/>
      <line x1="115" y1="86" x2="110" y2="99"/><line x1="115" y1="86" x2="120" y2="99"/>
      <line x1="130" y1="84" x2="125" y2="97"/><line x1="130" y1="84" x2="135" y2="97"/>
      <line x1="145" y1="87" x2="140" y2="100"/><line x1="145" y1="87" x2="150" y2="100"/>
      <line x1="155" y1="93" x2="150" y2="106"/><line x1="155" y1="93" x2="160" y2="106"/>
    </g>
  </g>
</svg>
