<svg xmlns="http://www.w3.org/2000/svg" xmlns:xlink="http://www.w3.org/1999/xlink" width="740" height="995">
<g fill="none" stroke="#000">
  <g id="web" stroke-width="5" stroke-linecap="round" transform="translate(209.42,368.01)">
    <path id="wedge" d="M	74.2562584220407	320	q	85.7437415779593	-42.8718707889796	171.487483155919	0
    M	93.2808450798658	248.999276	q	66.7191549201342	-33.3595774600671	133.438309840268	0
    M	105.411600563736	203.7266802	q	54.5883994362636	-27.2941997181318	109.176798872527	0
    M	115.888162035168	164.6276205	q	44.1118379648323	-22.0559189824162	88.2236759296647	0
    M	124.911037991654	130.953789	q	35.0889620083456	-17.5444810041728	70.1779240166913	0
    M	132.657951683549	102.0419135	q	27.3420483164515	-13.6710241582257	54.684096632903	0
    M	139.286327012692	77.30448	q	20.7136729873079	-10.3568364936539	41.4273459746157	0
    M	144.935510554685	56.22144	q	15.0644894453148	-7.53224472265741	30.1289788906296	0
    M	149.728757196376	38.3328	q	10.2712428036237	-5.13562140181187	20.5424856072475	0
    M	153.77500436144	23.232	q	6.22499563855984	-3.11249781927992	12.4499912771197	0
    M	157.170456527927	10.56	q	2.82954347207266	-1.41477173603633	5.65908694414531	0 M	160	0	64.8780366869515	355"/>
    <use xlink:href="#wedge" transform="rotate(30,160,0)"/>
    <use xlink:href="#wedge" transform="rotate(60,160,0)"/>
    <use xlink:href="#wedge" transform="rotate(90,160,0)"/>
    <use xlink:href="#wedge" transform="rotate(120,160,0)"/>
    <use xlink:href="#wedge" transform="rotate(150,160,0)"/>
    <use xlink:href="#wedge" transform="rotate(180,160,0)"/>
    <use xlink:href="#wedge" transform="rotate(210,160,0)"/>
    <use xlink:href="#wedge" transform="rotate(240,160,0)"/>
    <use xlink:href="#wedge" transform="rotate(270,160,0)"/>
    <use xlink:href="#wedge" transform="rotate(300,160,0)"/>
    <use xlink:href="#wedge" transform="rotate(330,160,0)"/>
  </g>

  <g id="spider" fill="none" transform="matrix(0.43525,0,0,0.43525,122.81,771.65)">
    <g id="eyewhites" fill="#ff0" stroke="none" transform="matrix(0.99394,0.1099,-0.1099,0.99394,0,0)">
      <ellipse cx="208.29" cy="383.79" rx="26.183" ry="28.327"/>
      <ellipse cx="152.59" cy="349.19" rx="28.589" ry="31.82"/>
    </g>
    <g id="eyeballs" fill="red" stroke="none">
      <ellipse cx="-235.62" cy="306.15" rx="15.484" ry="11.843" transform="matrix(0.60392,-0.79704,0.79704,0.60392,0,0)"/>
      <ellipse cx="381.76" cy="213.36" rx="13.441" ry="11.078" transform="matrix(0.75715,0.65324,-0.65324,0.75715,0,0)"/>
    </g>
    <path id="feet" fill="red" stroke-width="9" d="m 32.237,215.63 c -57.409,42.05 -16.342,85.4 13.976,12.75 m 30.162,-119.78 c -64.599,36.88 -27.386,94.57 13.83,21.2 m 82.275,-104.58 c -66.27,-9.628 -63.31,59.443 -2.26,23.776 m 83.85,-44.4757 c -66.8,-20.8743 -69.04,54.4327 -8.31,33.6917 m 73.73,402.438 c -52.22,45.94 -8.89,80.58 20.25,15.56 m 131.76,-221.34 c -16.2,53.63 44.45,60.58 31.53,-3.14 m -121.75,152.73 c -19.92,60.16 29.12,80.87 22.65,-0.1 m 37.5,-53.94 c -22.83,68.88 17.18,86.12 21.89,3.14"/>
    <path id="legs" stroke-width="12.125" d="m 359.75,289.1 c 19.49,28.87 49.02,37.87 108.57,45.08 m -279.67,-155.19 c -22.43,-31.22 -23.5,-91.035 -15.66,-158.224 m 74.81,117.114 c -15.78,-54.13 -1.91,-104.328 7.48,-137.6522 m 25.91,364.0322 c 2.16,48.18 33.42,75.54 62.67,94.7 m -314.573,-246.64 c 26.889,31.37 67.075,43.29 108.263,50.28 m 166.77,86.8 c 22.98,30.48 56.23,37.44 104.65,34.72 m -24.31,-170.08 c 33.36,25.57 76.49,25.25 123.25,16.84 m -433.823,-126.09 c 17.597,29.56 37.633,58.31 92.593,99.76"/>
    <ellipse id="body" fill="#a40" stroke-width="18" cx="-7.0957" cy="362.3" rx="148.85" ry="102.35" transform="matrix(0.68707,-0.72659,0.72659,0.68707,0,0)"/>
    <path id="mouth" stroke-linecap="round" stroke-width="13.5" d="m 172.09,274.93 c 17.92,-10.61 81.2,11.08 68.17,79.71"/>
    <path id="eyes" stroke-width="9.5" d="m 182.01,383.1 c -4.87,-5.47 -11.82,-8.97 -20.34,-7.28 -12.94,3.48 -15.35,6.23 -21.01,15.15 -3.55,6.1 -5.47,16.81 -2.45,23.98 5.89,12.16 16.03,18.74 29.34,16.2 10.38,-1.85 13.28,-4.87 18.06,-11.72 11.98,-20.79 -2.49,-35.06 -3.6,-36.33 z m -49.45,-47.45 c -3.66,-6.38 -10.52,-7.73 -19.04,-6.04 -12.94,3.48 -22.468,12.89 -28.128,21.81 -3.553,6.1 -3.654,15.91 -0.631,23.08 5.889,12.16 20.239,21.59 33.549,19.05 10.38,-1.85 14.52,-7.27 19.3,-14.12 11.85,-23.69 -3.88,-40.99 -5.05,-43.78 z"/>
  </g>
  <path id="thread" stroke-width="5" d="M 274.3,723.01 274.3,831.04"/>
</g>

</svg>
