<svg version="1.1" viewBox = "-549.9529 -458.287 558.22193 491.33899" xmlns="http://www.w3.org/2000/svg">
<path fill="#967b1f" d="
M 0 -0
l -3.597 -4.7718
l 0.067 -0.052
l 3.576 4.7891
z
m -10.085 -13.354
l -3.612 -4.7609
l 0.123 -0.0922
l 3.593 4.775
z
m -10.127 -13.32
l -3.626 -4.748
l 0.179 -0.137
l 3.607 4.764
z
m -10.171 -13.287
l -3.644 -4.735
l 0.233 -0.177
l 3.625 4.748
z
m -10.222 -13.242
l -3.668 -4.723
l 0.289 -0.225
l 3.647 4.739
z
m -10.287 -13.198
l -3.69 -4.691
l 0.345 -0.27
l 3.668 4.708
z
m -10.359 -13.115
l -3.729 -4.672
l 0.396 -0.314
l 3.711 4.685
z
m -10.487 -13.041
l -3.782 -4.625
l 0.447 -0.367
l 3.764 4.643
z
m -10.668 -12.89
l -3.878 -4.538
l 0.492 -0.423
l 3.863 4.558
z
m -11.033 -12.547
l -4.162 -4.256
l 0.499 -0.518
l 4.171 4.301
z
m -11.553 -12.106
l -3.434 -4.914
l 0.658 -0.437
l 3.393 4.9
z
m -9.25 -13.98
l -3.121 -5.108
l 0.738 -0.443
l 3.096 5.111
z
m -8.614 -14.364
l -3.002 -5.168
l 0.805 -0.464
l 2.981 5.177
z
m -8.344 -14.509
l -2.938 -5.206
l 0.876 -0.492
l 2.913 5.217
z
m -8.182 -14.602
l -2.893 -5.232
l 0.941 -0.516
l 2.87 5.24
z
m -8.07 -14.663
l -2.86 -5.246
l 1.004 -0.544
l 2.838 5.258
z
m -7.987 -14.706
l -2.835 -5.26
l 1.069 -0.573
l 2.813 5.27
z
m -57.414 -79.31
c -0.748 -0.407 -1.489 -0.811 -2.224 -1.209
c 5.771 2.277 11.373 4.348 16.832 6.256
c 0.768 1.444 1.543 2.887 2.312 4.331
c -5.851 -3.287 -11.541 -6.444 -16.919 -9.378
l 0 -0.002
z
m -84.764 8.777
l -1.819 -1.479
l 3.775 -4.624
l 1.8 1.463
z
m 1.785 47.801
l -1.437 0.347
l -1.399 -5.786
l 1.47 -0.347
z
m 2.527 10.401
l 1.439 5.771
l -1.35 0.343
l -1.471 -5.769
z
m 4.098 16.138
l 1.517 5.752
l -1.258 0.337
l -1.55 -5.748
z
m -11.916 -42.409
l -1.328 -5.804
l 1.559 -0.347
l 1.297 5.801
z
m -3.655 -16.263
l -0.99 -4.575
l -0.174 -0.807
l -0.325 0.4
l -1.863 -1.515
l 1.899 -2.327
l 1.854 1.507
l -1.12 1.385
l 1.111 -0.235
l 0.692 3.276
l 0.533 2.542
z
m -21.048 2.842
l -1.192 -0.152
l 0.384 -2.979
l 2.368 0.299
l -0.367 2.981
z
m -8.756 -8.957
l -1.555 1.046
l -1.67 -2.497
l 1.98 -1.333
l 1.685 2.488
z
m -26.547 68.814
l -1.347 0.076
l -0.36 -5.884
l 1.381 -0.08
z
m 0.914 16.484
l -1.248 0.073
l -0.362 -5.885
l 1.284 -0.074
z
m 0.915 16.485
l -1.152 0.067
l -0.36 -5.887
l 1.185 -0.067
z
m 0.914 16.484
l -1.053 0.063
l -0.363 -5.887
l 1.089 -0.063
z
m 0.913 16.486
l -0.955 0.053
l -0.362 -5.883
l 0.992 -0.058
z
m 0.915 16.485
l -0.859 0.049
l -0.361 -5.885
l 0.895 -0.051
z
m -1.689 16.426
l -0.753 -0.129
l 0.98 -5.815
l 0.787 0.137
z
m -2.838 16.265
l -0.656 -0.113
l 0.979 -5.816
l 0.69 0.121
z
m -2.837 16.264
l -0.56 -0.096
l 0.978 -5.814
l 0.595 0.101
z
m -2.839 16.264
l -0.464 -0.081
l 0.98 -5.814
l 0.498 0.086
z
m -2.837 16.265
l -0.368 -0.062
l 0.979 -5.817
l 0.402 0.071
z
m -2.838 16.264
l -0.271 -0.047
l 0.98 -5.814
l 0.305 0.052
z
m -2.838 16.264
l -0.176 -0.0301
l 0.98 -5.8136
l 0.21 0.0347
z
m -2.837 16.265
l -0.079 -0.0141
l 0.979 -5.816
l 0.112 0.0219
z
m 14.263 -234.99
l 1.478 -0.088
l 0.327 5.89
l -1.443 0.084
z
m -1.012 -16.481
l 1.576 -0.091
l 0.327 5.887
l -1.541 0.091
z
m -1.011 -16.479
l 1.672 -0.096
l 0.327 5.886
l -1.638 0.097
z
m -1.013 -16.478
l 1.771 -0.103
l 0.327 5.887
l -1.735 0.101
z
m -1.01 -16.478
l 1.866 -0.11
l 0.327 5.888
l -1.833 0.107
z
m -1.012 -16.48
l 1.965 -0.114
l 0.326 5.886
l -1.929 0.113
z
m -2.754 34
c 0.442 0.207 0.896 0.429 1.346 0.645
l 0.721 9.839
c -0.631 -3.97 -1.47 -7.615 -2.067 -10.484
m -39.191 25.801
c 0.073 1.052 0.408 2.317 0.939 3.718
c -5.098 0.756 -10.361 1.252 -15.602 1.596
l -1.02 -35.636
c 3.665 3.688 7.374 7.335 11.166 10.897
c 2.802 2.627 5.623 5.218 8.49 7.771
c -2.467 4.366 -4.183 8.598 -3.973 11.654
m 6.917 -64.65
c 0.062 2.906 0.396 5.77 0.947 8.529
l -14.056 -7.18
c 5.055 5.322 10.311 9.621 15.491 13.123
l -0.596 5.245
l -16.726 -8.543
c 5.271 5.548 10.759 9.996 16.154 13.574
l -2.681 23.564
c -2.398 -2.04 -4.778 -4.108 -7.13 -6.192
c -4.814 -4.272 -9.528 -8.66 -14.156 -13.136
l -1.467 -51.216
z
m 20.524 -81.929
l 16.906 37.288
c -7.603 3.497 -13.78 7.323 -18.205 10.355
c -2.233 1.297 -4.239 2.703 -6.033 4.203
z
m 55.777 36.883
c -0.165 0.51 -0.327 1.024 -0.495 1.525
c -0.098 0.288 -0.198 0.571 -0.298 0.856
c -1.436 -0.117 -2.849 -0.216 -4.236 -0.297
z
m 13.07 -12.14
c 1.853 -7.345 3.611 -14.688 5.337 -22.036
c 2.316 -9.884 4.556 -19.775 6.767 -29.672
l 24.715 83.228
c -11.22 -1.691 -20.693 -3.071 -27.611 -4.062
l 8.371 -8.373
c -5.374 -1.08 -10.467 -1.96 -15.349 -2.689
l 13.696 -5.322
c -5.696 0.323 -11.114 1.14 -16.214 2.276
l -0.877 -6.143
l 4.323 -1.792
c -1.529 0.088 -3.032 0.226 -4.524 0.387
l -0.046 -0.317
c 0.48 -1.83 0.948 -3.657 1.412 -5.485
m 48.855 38.925
l -0.396 0.477
c -8.426 -1.373 -16.856 -2.717 -25.297 -3.989
c 8.572 1.111 17.134 2.297 25.693 3.512
m -2.018 9.108
l 3.775 -4.624
l 1.636 1.33
l -3.755 4.639
z
m -18.101 33.033
c 1.815 0.796 3.716 1.639 5.298 2.35
l 0 10.396
l -10.319 -6.437
z
m 6.104 -29.947
c -0.45 2.159 -0.771 4.1 -0.997 5.878
l -9.217 11.099
c 2.124 -5.757 7.553 -13.335 10.214 -16.977
m -23.828 33.112
c -0.25 -1.329 -0.501 -2.656 -0.746 -3.985
c 0.811 0.699 1.642 1.406 2.499 2.129
l -1.696 2.041
l -0.057 -0.185
m -6.061 -52.516
l 0.611 -0.612
c 3.136 1.889 6.236 3.721 9.317 5.521
c -3.803 -1.911 -7.163 -3.581 -9.928 -4.909
m -0.088 39.309
l -1.799 0.342
l -1.115 -5.847
l 1.833 -0.341
z
m 3.171 16.342
l -1.71 0.347
l -1.187 -5.832
l 1.742 -0.347
z
m 33.699 -29.636
l -3.756 4.64
l -1.711 -1.392
l 3.775 -4.623
z
m -14.271 17.63
l -1.765 -1.435
l 3.774 -4.623
l 1.746 1.419
z
m 7.461 -1.352
c 0.123 0.515 0.244 1.03 0.36 1.547
c 0.463 2.046 -0.571 2.515 -0.911 2.667
c -0.847 0.387 -2.082 0.361 -3.414 0.05
l 3.837 -4.82
c 0.042 0.186 0.086 0.37 0.128 0.556
m 6.09 -30.887
c 0.964 0.596 1.949 1.149 2.926 1.724
l -0.05 0.057
c -0.96 -0.592 -1.928 -1.166 -2.876 -1.781
m -40.11 5.663
l 1.001 5.86
l -1.892 0.333
l -1.033 -5.865
z
m -9.17 25.424
l 0.826 -6.419
l 2.179 0.275
l -0.793 6.422
z
m -1.489 11.55
l 2.273 0.288
l -0.792 6.422
l -2.308 -0.291
z
m -4.482 -1.053
l -14.384 -8.964
l 15.911 -7.267
l 0.179 4.002
z
m -23.856 -2.301
l 7.886 12.1
c -0.34 0.109 -0.685 0.216 -1.034 0.322
l -9.911 -8.911
c 0.664 -0.93 2.015 -2.476 3.059 -3.511
m -5.194 -19.802
l -1.787 1.203
l -2.949 -4.412
l 1.76 -1.184
z
m 38.162 -12.783
l 2.085 0.262
l -0.793 6.424
l -2.119 -0.269
z
m -32.805 20.693
l 2.976 4.395
l -1.859 1.251
l -2.95 -4.412
z
m 2.733 -14.172
c -0.922 1.349 -2.317 3.216 -3.825 4.853
l -3.369 -4.853
z
m -8.408 -22.582
l 25.686 3.413
l -13.597 7.733
l -18.336 -2.257
z
m 41.279 -5.66
l 1.078 7.168
l 0.447 2.961
l -0.791 0.124
l -0.022 0.17
l -0.593 -0.075
l -0.578 0.091
l -0.026 -0.168
l -0.826 -0.103
l 0.385 -2.98
z
m -56.77 4.195
c 0.094 -0.084 0.184 -0.17 0.279 -0.252
c 0.782 -0.664 1.581 -1.307 2.392 -1.936
c 1.489 -1.155 3.028 -2.241 4.662 -3.175
c 4.977 -2.995 10.406 -5.155 15.97 -6.643
c -2.695 1.021 -5.397 2.01 -7.968 3.293
c -2.609 1.187 -5.111 2.592 -7.514 4.136
c -0.336 0.217 -0.664 0.444 -0.995 0.667
c -2.173 1.465 -4.256 3.066 -6.195 4.819
z
m -9.725 90.625
l 8.773 -6.638
l 2.395 3.143
l -2.744 4.62
z
m 1.226 -19.551
c 0.681 0.681 2.16 2.113 3.548 3.45
l -13.741 10.965
l -4.559 -3.078
c 5.43 -4.252 13.015 -10.134 14.752 -11.337
m 3.679 -64.287
c -3.526 4.45 -6.121 9.645 -7.439 15.174
c -0.527 2.28 -0.814 4.622 -0.8 6.967
c 0.004 0.499 0.003 0.996 0.035 1.493
c 0.115 1.646 0.383 3.32 0.927 4.896
c 0.386 1.117 0.907 2.186 1.628 3.152
c -0.877 -0.951 -1.513 -2.106 -1.985 -3.317
c -0.055 -0.143 -0.119 -0.284 -0.171 -0.429
c -0.482 -1.371 -0.813 -2.8 -0.982 -4.249
c -0.068 -0.628 -0.101 -1.257 -0.121 -1.887
c -0.074 -2.284 0.142 -4.575 0.569 -6.821
c 1.161 -5.735 3.853 -11.089 7.391 -15.717
c 1.365 -1.747 2.872 -3.377 4.482 -4.891
l 0.108 1.48
c -1.299 1.306 -2.525 2.681 -3.642 4.149
m 1.991 21.776
l 3.287 -3.601
l 0.311 4.251
c -1.117 -0.236 -2.309 -0.458 -3.598 -0.65
m -5.544 17.842
c -0.073 -1.601 0.093 -5.005 1.656 -5.202
c 1.086 -0.134 4.671 0.45 8.451 1.175
l 0.371 5.08
c -2.97 0.625 -6.549 0.597 -10.478 -1.053
m 0.805 13.834
l -10.962 5.922
l 9.907 -8.293
z
m -14.133 -32.168
c -0.131 -1.2 -0.151 -2.408 -0.114 -3.615
c 0.053 -1.709 0.242 -3.414 0.561 -5.093
c 1.162 -5.735 3.852 -11.089 7.392 -15.718
c 1.796 -2.301 3.84 -4.4 6.046 -6.299
c 2.216 -1.882 4.529 -3.671 7.053 -5.111
c 4.979 -2.996 10.407 -5.156 15.971 -6.645
c -2.695 1.023 -5.397 2.011 -7.967 3.293
c -2.61 1.188 -5.114 2.593 -7.515 4.137
c -4.787 3.098 -9.194 6.838 -12.641 11.365
c -3.525 4.45 -6.121 9.644 -7.441 15.173
c -0.397 1.726 -0.648 3.489 -0.751 5.26
c -0.062 1.065 -0.083 2.133 -0.012 3.201
c 0.064 0.923 0.18 1.854 0.361 2.772
c 0.369 1.884 1.026 3.711 2.194 5.276
c -0.981 -1.062 -1.673 -2.379 -2.156 -3.746
c -0.209 -0.596 -0.377 -1.208 -0.528 -1.823
c -0.197 -0.8 -0.359 -1.608 -0.453 -2.427
m -3.478 24.002
c 2.938 1.747 5.822 3.248 8.607 4.536
c -0.865 0.658 -1.73 1.413 -2.593 2.289
c -1.486 1.511 -4.949 5.551 -8.446 10.379
z
m 31.309 -33.044
l -0.192 0.012
l -0.175 0.118
l -0.07 -0.103
l -1.59 0.092
l -0.184 -2.998
l -0.229 -3.735
l 2.101 3.103
l 1.685 2.488
l -1.352 0.909
z
m 24.412 37.189
l -2.948 -4.411
l 1.906 -1.283
l 2.976 4.394
z
m 81.027 10.537
c 1.834 0.681 7.543 3.191 11.374 4.913
l 0 10.396
l -12.502 -7.798
z
m 12.391 -4.32
c 0.463 2.047 -0.571 2.516 -0.91 2.669
c -2.42 1.098 -7.955 -1.087 -10.036 -3.954
c -3.08 -4.251 6.636 -17.853 10.504 -23.149
c -2.492 11.947 -1.185 17.502 0.082 22.887
c 0.122 0.516 0.243 1.031 0.36 1.547
m 18.103 20.782
c 1.835 0.681 7.543 3.191 11.375 4.913
l 0 10.395
l -12.502 -7.799
z
m 15.631 -2.753
c -2.42 1.101 -7.953 -1.084 -10.036 -3.953
c -3.08 -4.25 6.638 -17.855 10.504 -23.149
c -2.491 11.948 -1.185 17.501 0.083 22.887
c 0.121 0.516 0.242 1.03 0.359 1.549
c 0.463 2.046 -0.571 2.514 -0.91 2.666
m -45.196 -62.694
c 3.493 1.806 7.024 3.542 10.575 5.227
c 3.953 1.773 7.844 3.68 11.867 5.292
l 5.993 2.51
c 1.99 0.853 4.041 1.557 6.058 2.342
c 4.05 1.535 8.086 3.101 12.204 4.446
l 4.686 1.6
l 4.503 -0.137
c 0.175 0.33 0.35 0.659 0.525 0.99
l -2.09 0.144
c 0.533 0.182 1.065 0.368 1.599 0.538
l 1.012 0.303
c 0.238 0.448 0.475 0.898 0.713 1.347
l -2.054 -0.623
c -1.033 -0.333 -2.055 -0.703 -3.082 -1.055
l -0.93 -0.32
l -0.216 0.015
l -0.005 -0.092
l -5.004 -1.732
c -2.043 -0.734 -4.123 -1.365 -6.134 -2.184
l -6.062 -2.382
c -2.013 -0.814 -4.057 -1.546 -6.043 -2.425
l -5.973 -2.592
c -4.008 -1.667 -7.89 -3.619 -11.821 -5.458
c -3.536 -1.778 -7.051 -3.603 -10.524 -5.5
z
m 7.78 -19.599
l 1.581 1.284
l -3.756 4.64
l -1.6 -1.302
z
m 19.167 -14.277
c 4.202 8.08 8.415 16.153 12.64 24.217
c -9.767 -1.625 -19.271 -3.16 -28.261 -4.578
z
m -8.597 1.33
l 1.527 1.241
l -3.756 4.639
l -1.546 -1.257
z
m 8.694 -10.651
l 0.934 -1.143
l 0.661 1.317
l 1.344 2.678
l -1.692 0.856
l -0.689 -1.36
l -0.965 1.192
l -1.492 -1.211
z
m 7.777 12.45
l 2.694 5.327
l -1.628 0.828
l -2.716 -5.317
z
m 7.554 14.918
l 2.705 5.327
l -1.561 0.798
l -2.73 -5.315
z
m 7.585 14.91
l 2.715 5.321
l -1.497 0.77
l -2.74 -5.311
z
m -43.014 -7.813
l 0.501 -0.63
c 6.138 0.929 12.275 1.872 18.406 2.844
c 5.619 0.895 11.232 1.827 16.842 2.776
c 0.205 0.389 0.409 0.779 0.615 1.17
c -5.867 -1.025 -11.735 -2.04 -17.606 -3.039
c -6.249 -1.065 -12.503 -2.1 -18.758 -3.121
m 41.575 16.084
c 0.181 0.344 0.361 0.689 0.543 1.031
l -41.322 -8.716
c 13.629 2.376 27.212 4.989 40.779 7.685
m 33.169 -4.093
c 18.541 3.643 37.053 7.501 55.367 12.202
c 9.148 2.372 18.26 4.913 27.216 7.96
c 4.466 1.554 8.906 3.202 13.205 5.176
c 2.155 0.978 4.261 2.061 6.299 3.261
c 2.014 1.225 3.985 2.599 5.532 4.393
c -1.584 -1.761 -3.574 -3.086 -5.607 -4.266
c -2.056 -1.154 -4.177 -2.188 -6.343 -3.12
c -4.326 -1.878 -8.788 -3.43 -13.272 -4.886
c -8.971 -2.923 -18.095 -5.363 -27.257 -7.623
c -18.331 -4.507 -36.821 -8.37 -55.368 -11.918
c -9.173 -1.794 -18.365 -3.497 -27.566 -5.145
c -0.202 -0.406 -0.405 -0.813 -0.608 -1.22
c 9.479 1.66 18.946 3.39 28.402 5.186
m 92.406 39.406
l -6.508 0.015
c -1.085 -0.008 -2.171 0.032 -3.255 -0.016
l -3.248 -0.163
c -8.66 -0.528 -17.351 -0.75 -25.966 -1.861
c -4.314 -0.483 -8.643 -0.853 -12.94 -1.463
l -12.863 -2.054
c -4.302 -0.602 -8.543 -1.545 -12.795 -2.425
l -6.376 -1.323
l -3.19 -0.661
l -3.157 -0.795
l -12.614 -3.255
c -1.001 -0.286 -1.998 -0.591 -2.997 -0.888
c -0.232 -0.46 -0.461 -0.922 -0.694 -1.383
c 1.331 0.393 2.66 0.791 3.996 1.167
l 12.59 3.192
l 3.146 0.804
l 3.176 0.673
l 6.355 1.344
c 4.235 0.895 8.46 1.854 12.748 2.473
l 12.819 2.103
c 2.134 0.373 4.298 0.525 6.445 0.804
l 6.451 0.769
c 8.584 1.22 17.251 1.543 25.891 2.192
l 3.243 0.237
c 1.082 0.072 2.165 0.056 3.248 0.09
l 6.5 0.129
l 13.003 0.26
z
m -98.46 6.365
l -1.306 0.681
l -2.771 -5.297
l 1.327 -0.69
z
m -10.768 36.096
c 1.834 0.681 7.542 3.19 11.374 4.913
l 0 10.396
l -12.502 -7.798
z
m 0.351 -56.261
l 2.736 5.312
l -1.369 0.711
l -2.761 -5.302
z
m 16.731 -8.367
l -16.834 1.167
c -0.109 -0.218 -0.217 -0.435 -0.327 -0.651
z
m -22.955 -11.008
c 3.865 0.791 7.734 1.57 11.595 2.382
l 0 -0.048
l 28.987 0.601
l -24.064 0.499
c 5.66 1.204 11.321 2.414 16.977 3.649
c 6.153 1.39 12.305 2.788 18.45 4.211
l 0.004 -0.004
l 0.008 0.008
c 7.884 1.827 15.757 3.701 23.602 5.69
c 2.164 0.55 4.325 1.111 6.487 1.67
l 20.827 -2.193
l -17.949 2.933
c 10.821 2.822 21.603 5.798 32.266 9.173
l -10.423 -2.837
l -10.457 -2.691
c -3.478 -0.927 -6.984 -1.753 -10.474 -2.624
c -0.964 -0.239 -1.931 -0.461 -2.895 -0.698
l -0.853 0.14
l -0.048 -0.357
c -2.232 -0.546 -4.462 -1.101 -6.701 -1.618
c -7.126 -1.706 -14.262 -3.372 -21.405 -5.003
l 17.293 13.878
l -19.947 -14.471
c -6.011 -1.365 -12.024 -2.716 -18.047 -4.035
c -7.15 -1.614 -14.309 -3.179 -21.476 -4.723
l -0.162 0.004
l 0 -0.039
c -3.674 -0.792 -7.349 -1.579 -11.025 -2.363
c -0.19 -0.378 -0.379 -0.755 -0.57 -1.134
m -2.537 -5.061
l 3.286 2.249
l -3.067 -1.806
c -0.074 -0.148 -0.147 -0.296 -0.219 -0.443
m 2.408 15.607
l -2.75 -5.307
l 1.458 -0.75
l 2.726 5.316
z
m 17.634 39.961
c -0.32 5.442 0.702 8.635 1.707 11.744
c 0.393 1.218 0.764 2.367 1.054 3.647
c 0.461 2.047 -0.572 2.515 -0.912 2.667
c -2.421 1.099 -7.954 -1.083 -10.035 -3.953
c -2.426 -3.349 2.57 -11.664 6.475 -17.307
c 0.485 0.906 0.967 1.815 1.453 2.721
c 0.086 0.161 0.173 0.319 0.258 0.481
m 36.696 42.66
l 0 10.396
l -1.813 -1.131
c -2.287 -4.35 -4.566 -8.704 -6.833 -13.062
c 2.535 1.077 6.028 2.62 8.646 3.797
m -1.747 -30.295
c -1.854 9.084 -0.479 11.929 0.969 14.928
c 0.568 1.173 1.155 2.386 1.528 4.04
c 0.463 2.048 -0.57 2.514 -0.911 2.669
c -2.421 1.098 -7.953 -1.087 -10.035 -3.955
c -2.995 -4.131 4.899 -13.48 8.271 -17.473
l 0.178 -0.209
m -10.755 32.893
l 0.076 -0.507
c 0.155 0.28 0.308 0.562 0.462 0.843
z
m -5.71 -16.448
l 1.135 -0.604
l 2.796 5.286
l -1.112 0.592
z
m -7.852 -14.78
l 1.199 -0.633
l 2.775 5.289
l -1.176 0.622
z
m -7.807 -14.8
l 1.264 -0.66
l 2.76 5.294
l -1.243 0.65
z
m -103.05 69.483
l 1.599 5.729
l -1.17 0.331
l -1.63 -5.724
z
m 4.549 16.017
l 1.682 5.703
l -1.08 0.327
l -1.715 -5.702
z
m 4.789 15.947
l 1.775 5.674
l -0.993 0.319
l -1.805 -5.674
z
m 5.052 15.866
l 1.871 5.646
l -0.902 0.305
l -1.902 -5.641
z
m 5.215 15.836
l 1.647 5.724
l -0.832 0.233
l -1.673 -5.7
z
m 4.389 16.084
l 1.441 5.777
l -0.751 0.187
l -1.472 -5.761
z
m 3.938 16.195
l 1.353 5.848
l -0.67 0.154
l -1.383 -5.834
z
m 3.697 16.293
l 1.27 5.816
l -0.587 0.129
l -1.299 -5.806
z
m 3.497 16.287
l 1.209 5.828
l -0.501 0.104
l -1.239 -5.819
z
m 3.333 16.326
l 1.151 5.84
l -0.417 0.08
l -1.181 -5.83
z
m 3.166 16.358
l 1.087 5.851
l -0.331 0.063
l -1.117 -5.844
z
m 2.981 16.396
l 1.01 5.8629
l -0.244 0.041
l -1.042 -5.855
z
m 2.743 16.434
l 0.904 5.8828
l -0.158 0.0231
l -0.935 -5.875
z
m 2.391 16.49
l 0.717 5.9082
l -0.073 0.0078
l -0.747 -5.902
z
m 118.24 -249.48
c -1.855 9.083 -0.48 11.93 0.97 14.928
c 0.567 1.173 1.154 2.386 1.527 4.038
c 0.462 2.047 -0.571 2.516 -0.911 2.672
c -2.417 1.086 -7.953 -1.087 -10.035 -3.955
c -2.995 -4.132 4.901 -13.483 8.272 -17.474
l 0.177 -0.209
m 123.38 244.6
l 0.011 -0.0101
l 1.785 2.4101
c -22.197 -30.41 -44.613 -60.666 -67.643 -90.474
c -5.768 -7.446 -11.585 -14.856 -17.513 -22.186
c -5.967 -7.316 -11.884 -14.621 -18.566 -21.496
l -1.279 -1.279
l -1.386 -1.242
l -0.68 -0.608
l -0.539 -0.504
c -0.361 -0.338 -0.723 -0.785 -1.086 -1.17
c -1.439 -1.693 -2.778 -3.597 -4.092 -5.494
c -2.611 -3.838 -5.08 -7.816 -7.499 -11.826
c -4.833 -8.023 -9.457 -16.205 -14.022 -24.414
c -7.091 -12.84 -14.037 -25.764 -20.893 -38.738
c 4.62 2.06 8.282 3.715 8.282 3.715
c 0 -0 -3.305 -8.413 3.906 -3.906
c 7.21 4.507 26.138 11.117 26.739 9.314
c 0.601 -1.803 -2.704 -7.812 3.004 -6.91
c 5.709 0.901 10.817 -10.516 18.327 -10.216
c 7.511 0.301 -12.318 -3.304 -12.618 -6.309
c -0.301 -3.005 0.3 -7.511 0.3 -7.511
c 0 -0 -6.083 -3.667 -15.83 -9.471
l 0.479 -2.011
l -1.06 1.666
c -8.461 -5.037 -19.565 -11.614 -31.812 -18.785
l 0.067 -0.281
l -0.149 0.235
c -10.75 -6.296 -22.371 -13.041 -33.847 -19.595
l 0.045 -0.192
l -0.102 0.161
c -0.9 -0.514 -1.8 -1.027 -2.699 -1.539
c -1.29 -2.544 -2.582 -5.088 -3.869 -7.633
c 89.23 28.537 133.18 7.761 126.33 -7.375
c -5.257 -11.622 -81.427 -26.995 -149.39 -38.541
c -6.123 -12.286 -12.226 -24.579 -18.286 -36.889
l -3.231 -6.562
l -4.734 5.699
l -24.525 29.526
c -3.489 -0.539 -6.872 -1.059 -10.131 -1.555
l -27.554 -100.53
l -3.937 -14.373
l -3.521 14.571
c -3.531 14.616 -7.149 29.236 -10.889 43.796
c -1.872 7.279 -3.777 14.549 -5.763 21.771
c -0.907 3.297 -1.837 6.581 -2.803 9.83
c -7.135 1.586 -13.707 3.88 -19.569 6.446
c -3.352 0.066 -6.526 0.25 -9.533 0.537
l -0.415 -0.841
l 26.287 -10.628
c -10.55 0.6 -20.168 2.969 -28.551 6.031
l -23.949 -48.639
l -5.657 -11.489
l -1.434 12.615
l -8.263 72.633
c -2.62 3.721 -4.365 7.734 -5.411 11.845
l -27.053 -23.273
l -7.157 -6.156
l 0.567 9.294
l 3.286 54
c -8.24 -8.294 -16.178 -16.896 -23.606 -25.93
c -4.4957 -5.419 -8.7691 -11.021 -12.828 -16.774
c -4.0812 -5.739 -7.8848 -11.677 -11.341 -17.812
c -3.4754 -6.124 -6.6328 -12.447 -9.1758 -19.023
c -2.5668 -6.562 -4.6273 -13.341 -5.8703 -20.306
c 1.0457 6.996 2.9168 13.853 5.3086 20.518
c 2.3684 6.678 5.3605 13.128 8.6836 19.387
c 3.3035 6.273 6.9629 12.361 10.907 18.254
c 3.9219 5.907 8.0676 11.672 12.439 17.257
c 8.0508 10.378 16.735 20.25 25.807 29.747
l 2.57 42.218
c -5.269 0.24 -10.547 0.329 -15.827 0.24
c -6.1532 -0.101 -12.306 -0.431 -18.44 -0.991
c -6.1316 -0.587 -12.239 -1.424 -18.304 -2.516
c -12.117 -2.209 -24.071 -5.53 -35.454 -10.318
c -5.7265 -2.324 -11.205 -5.208 -16.56 -8.296
c -5.3414 -3.127 -10.364 -6.764 -15.21 -10.632
c 4.7144 4.02 9.6332 7.831 14.896 11.143
c 5.2734 3.276 10.698 6.358 16.389 8.884
c 11.317 5.198 23.285 8.946 35.471 11.578
c 6.0984 1.3 12.254 2.347 18.442 3.143
c 6.193 0.769 12.416 1.303 18.651 1.608
c 5.391 0.266 10.792 0.347 16.196 0.273
l 2.262 37.167
c -6.198 15.861 -12.355 31.73 -18.453 47.625
l -9.1347 24.058
l -4.4621 12.072
l -2.1559 6.061
l -1.0261 3.051
l -0.4746 1.537
l -0.2106 0.777
c -0.0387 0.252 -0.1777 0.545 -0.0648 0.776
c -0.1035 -0.231 0.0433 -0.52 0.0902 -0.772
l 0.2344 -0.767
l 0.5238 -1.518
l 1.1227 -3.014
l 2.348 -5.986
l 4.8453 -11.914
l 9.9024 -23.744
c 6.652 -15.806 13.368 -31.59 20.12 -47.352
l 0.134 -0.312
l -0.011 -0.39
l -1.073 -37.459
c 5.596 -0.186 11.151 -0.519 16.823 -1.199
l -0.362 -2.376
c 0.249 0.526 0.518 1.063 0.806 1.61
l -3.719 32.682
l -22.943 73.667
l 24.862 -73.155
l 0.026 -0.078
l 0.016 -0.103
l 4.093 -28.948
c 3.472 5.594 8.069 11.428 11.654 14.938
l -0.109 0.63
c 0.138 0.011 0.527 0.086 0.81 0.145
l 0.157 0.037
c 2.03 1.854 3.638 2.814 4.359 2.31
c 0.201 -0.14 0.443 -0.321 0.713 -0.527
c 0.386 0.189 0.777 0.37 1.143 0.579
c 2.223 1.257 4.07 2.905 5.255 4.921
c 0.6 1.005 1.041 2.103 1.32 3.28
c 0.262 1.168 0.428 2.49 0.331 3.568
c -0.244 2.575 -1.013 5.555 -1.804 8.415
c -1.643 5.785 -3.637 11.576 -5.678 17.343
c -2.051 5.764 -4.189 11.518 -6.351 17.264
l -13.071 34.484
c -2.149 5.766 -4.272 11.539 -6.293 17.35
c -2.008 5.814 -3.971 11.654 -5.52 17.605
c 1.871 -5.855 4.144 -11.562 6.462 -17.248
c 2.332 -5.679 4.763 -11.32 7.22 -16.949
l 14.936 -33.719
c 2.478 -5.63 4.935 -11.277 7.32 -16.97
c 2.374 -5.701 4.706 -11.42 6.751 -17.36
c 0.994 -3.011 1.989 -5.948 2.539 -9.476
c 0.255 -1.977 0.157 -3.754 -0.12 -5.601
c -0.295 -1.838 -0.877 -3.673 -1.733 -5.372
c -1.562 -3.148 -4.008 -5.702 -6.704 -7.623
c 4.25 -4.46 9.24 -10.941 11.912 -18.6
c 0.975 -2.798 1.428 -5.821 1.543 -8.894
l 9.969 136.1
l -21.674 138.69
l 0.499 -2.9609
l 0.019 0.0019
l -0.518 2.959
l 25.809 -138.25
l 0.038 -0.203
l -0.012 -0.267
l -6.657 -152.59
c 10.782 6.387 22.109 15.526 29.04 28.061
c 6.808 -13.555 -2.404 -22.721 -2.404 -22.721
c 0 -0 22.032 14.874 29.243 25.04
c 6.81 -6.659 -8.013 -29.29 -8.013 -29.29
c 0 -0 2.843 2.944 6.392 6.304
c 1.66 7.119 3.362 14.229 5.116 21.331
c 2.013 7.753 3.911 15.529 6.055 23.247
l 3.152 11.588
l 3.313 11.543
l 1.657 5.77
l 1.751 5.746
l 3.502 11.485
l 3.688 11.431
c 1.261 3.801 2.423 7.629 3.773 11.4
l 3.938 11.344
c 1.321 3.816 2.632 7.473 3.788 11.264
c 2.321 7.574 4.401 15.269 6.396 22.982
c 3.976 15.436 7.631 30.971 11.082 46.549
c 3.443 15.58 6.694 31.209 9.633 46.896
c 1.465 7.8461 2.851 15.705 4.07 23.592
c 1.184 7.8871 2.344 15.797 2.726 23.776
l -0.132 -3.002
l 0.015 -0
l 0.117 3.002
c -0.171 -7.991 -1.124 -15.938 -2.1 -23.862
c -1.012 -7.9289 -2.191 -15.832 -3.448 -23.72
c -2.528 -15.78 -5.37 -31.504 -8.403 -47.196
c -3.044 -15.691 -6.292 -31.342 -9.875 -46.937
c -1.798 -7.797 -3.679 -15.576 -5.834 -23.33
c -1.071 -3.879 -2.352 -7.774 -3.542 -11.537
l -3.619 -11.383
c -1.244 -3.782 -2.299 -7.627 -3.451 -11.44
l -3.368 -11.459
l -3.181 -11.514
l -1.589 -5.755
l -1.498 -5.783
l -2.99 -11.566
l -2.828 -11.605
c -1.93 -7.725 -3.613 -15.513 -5.411 -23.267
c -0.812 -3.703 -1.61 -7.413 -2.396 -11.126
c 1.45 0.927 2.607 1.408 3.226 1.15
c 1.433 -0.599 -1.795 -10.286 -5.376 -20.827
l 6.304 -7.927
c 11.844 9.442 26.297 20.1 41.321 30.345
l 16.932 57.024
l 0.068 0.227
l 0.131 0.167
l 68.713 87.11
l -66.714 -88.354
l -14.546 -53.074
c 28.145 18.882 57.55 35.747 75.064 40.049
c -6.31 -4.206 2.79 -5.079 6.997 -3.577
c 1.472 0.525 5.113 2.082 9.224 3.879
c 8.314 15.049 16.742 30.038 25.378 44.918
c 4.754 8.143 9.567 16.256 14.615 24.252
c 2.53 3.998 5.108 7.967 7.877 11.854
c 1.406 1.939 2.814 3.865 4.463 5.726
c 0.451 0.465 0.841 0.928 1.343 1.385
l 1.416 1.24
l 1.268 1.086
l 1.241 1.192
c 6.583 6.492 12.698 13.701 18.773 20.842
c 6.063 7.179 12.025 14.455 17.942 21.765
c 23.63 29.285 46.681 59.061 69.514 88.994
l -1.796 -2.4" />
</svg>
