<svg xmlns="http://www.w3.org/2000/svg" viewBox="0 0 200 200">
  <g fill="none" stroke="#8B6F47" stroke-width="2">
    <rect x="75" y="75" width="55" height="55" rx="8" fill="#b5a58a" stroke="#8B6F47"/>
    <circle cx="82" cy="82" r="5" fill="#9a8a70" stroke="none"/>
    <circle cx="95" cy="78" r="4" fill="#a89878" stroke="none"/>
    <circle cx="108" cy="83" r="6" fill="#8a7a60" stroke="none"/>
    <circle cx="122" cy="80" r="4" fill="#9a8a70" stroke="none"/>
    <circle cx="85" cy="95" r="5" fill="#8a7a60" stroke="none"/>
    <circle cx="100" cy="100" r="7" fill="#a89878" stroke="none"/>
    <circle cx="118" cy="97" r="5" fill="#9a8a70" stroke="none"/>
    <circle cx="80" cy="112" r="4" fill="#a89878" stroke="none"/>
    <circle cx="95" cy="118" r="5" fill="#8a7a60" stroke="none"/>
    <circle cx="112" cy="115" r="6" fill="#9a8a70" stroke="none"/>
    <circle cx="123" cy="120" r="4" fill="#a89878" stroke="none"/>
    <g stroke="#6b5b45" stroke-width="1.5">
      <ellipse cx="68" cy="95" rx="4" ry="6" fill="#c4b49a"/>
      <circle cx="65" cy="85" r="3" fill="#c4b49a"/>
      <line x1="62" y1="82" x2="58" y2="75"/>
      <line x1="68" y1="82" x2="70" y2="74"/>
      <line x1="65" y1="100" x2="55" y2="108"/>
      <line x1="65" y1="97" x2="53" y2="95"/>
      <line x1="68" y1="100" x2="58" y2="112"/>
    </g>
  </g>
</svg>
